<svg id="Layer_1" data-name="Layer 1" xmlns="http://www.w3.org/2000/svg" viewBox="0 0 566.93 566.93"><defs><style>.cls-1{fill:#1c3664;}.cls-2{fill:#b0664b;}.cls-3{fill:#231f20;}.cls-4{fill:#fdddcb;}</style></defs><title>Bust</title><polygon class="cls-1" points="199.4 275.01 211.99 362.33 187.09 390.05 69.06 449.2 46.15 449.2 35.48 469.86 -7.84 495.84 -21.97 576.33 588.9 574.77 560.33 472.99 527.69 443.26 466.48 415.4 451.09 404.67 434.14 401.01 423.47 398.5 376.56 378.79 199.4 275.01"/><path class="cls-2" d="M199.4,275,212,362.33l-24.9,27.72S176.8,440.86,320,505.06c0,0,26.26,8.89,59-56.3v-69Z"/><path class="cls-2" d="M415.93,218.7l9,29.08L405.46,395.85,348.63,411.8,236.46,359.61l-32.15-52.19S119.06,235.85,160.19,124,353.86,42,380,83.76s31.41,64.12,35.9,79.77C415.93,163.53,431.63,181.43,415.93,218.7Z"/><path class="cls-3" d="M427.88,341l-8.22-26.09L407,297.73,379.28,285.8l-16.45,1.49L344.14,297,324.7,307.42l-17.95,14.92-14.91,17.34L256.26,331,205.44,219.21l22.61,147.2,6.92,11.1,11.21,9.69,6,8.65,17.27,10.72,17.5,8.95,13.83.76,12.7,7.45,15.72,3.72h19.43l15.7-3.72h20.95l7.48-6.72,6-9.68,12-4.48,6-7,3.39-13.25,7.28-11-2.45-12.71Zm-33.41,21.38-44.32,11.53L320,351.46V328.23l57.81-17.12,32.12,12.18Z"/><path d="M205.26,241.77l7.31,12.8,6.68-60.86s2.13-20.29,12.45-22.11l-4.86-48.45S305.75,45.67,394.16,108l5.76,11.38,8.24-15.33L392.37,92,404.82,78l-6.38-7.57L392.67,69l2.13-11.2-4.86-4.85h-9.42l1.22-11.2,7-7-3.94-5.14-13.67,2.12-7.9-2.12h-5.47L355,23.53l-8.5-2.42-12.15,5.15-3.65-7-2.43-6L316.83,9.3l-6.16,3-4.81.6L301.25,9.3l-9.71,1.51-10.33,3.33-7.59,5.76-4.18,7.26-4.63,3.94-2.43-7.27L258.13,29l-3.95-5.15-7.29-2.42L236.56,22l-2.73,6.36L231.1,31.1l-14.28-6.66-5.77-1.21-2.12,9.39,4.86,4.84-3.35,4.84-6.89-2.11-9.51.6-1.51,10L181.9,47.45,178,49V52.6l2.12,10.6L174,58.66l-4.56,4.24-3,7.57v9.38l-10.94.91V76.52l-4.25-3.93L144.84,78v7.57L147,94.08l-2.13,3L143,99.84v5.75l-6.38,4.85v16.35l-4.25,1.51,2.13,9.39.6,8.18h6.69v4.23l-9.42,3.34,6.68,6.66-1.82,4.84,3.64,3.94-6.37,1.82-2.13,7.87,5.47,5.45.6,7.87,3.35,2.42-2.43,5.76,4.55,9.38-1.21,6.67,4.25,2.12,4.25,3.93L144.84,229l4.13,7.22,5,2.6,5.77,2.88-3.64,9.53,6.38,3.33,3.34,6.06h-7.29l-.3,9.08,10,3.94V283h6.07v8.48l5.17,4.84,7,2.73.3,6.66,10,1.51,4.25,3.85,4.52-1.66Z"/><polygon class="cls-2" points="210 244.57 192.62 223.17 171.99 213.82 161.36 220.68 158.88 237.53 162.46 254.57 165.71 262.76 165.71 270.08 173.56 280.17 182.16 290.77 186.45 299.09 197.35 303.14 205.4 303.14 210.76 296.83 211.99 289.51 210 244.57"/><polygon class="cls-4" points="190.23 289.66 195.14 284.11 199.4 289.66 194.81 296.19 190.23 289.66"/></svg>