<?xml version="1.0" standalone="no"?>
<!DOCTYPE svg PUBLIC "-//W3C//DTD SVG 20010904//EN"
 "http://www.w3.org/TR/2001/REC-SVG-20010904/DTD/svg10.dtd">
<svg version="1.0" xmlns="http://www.w3.org/2000/svg"
 width="1420.000000pt" height="1420.000000pt" viewBox="0 0 1420.000000 1420.000000"
 preserveAspectRatio="xMidYMid meet">
<metadata>
Created by potrace 1.14, written by Peter Selinger 2001-2017
</metadata>
<g transform="translate(0.000000,1420.000000) scale(0.100000,-0.100000)"
fill="#000000" stroke="none">
<path d="M7731 14189 c-25 -5 -63 -11 -85 -14 -39 -6 -56 -9 -128 -20 -18 -3
-112 -31 -208 -62 l-174 -56 -130 -98 c-98 -74 -135 -109 -156 -146 -15 -26
-39 -68 -54 -93 -15 -25 -34 -58 -42 -75 -21 -39 -162 -161 -173 -149 -4 5
-23 57 -42 116 -19 59 -37 108 -41 108 -3 0 -37 -37 -74 -82 l-67 -81 -31 39
c-113 142 -101 133 -231 175 -128 42 -128 42 -374 24 -20 -1 -50 -3 -66 -4
-29 -1 -33 -6 -75 -107 -34 -79 -57 -118 -92 -154 l-47 -49 -128 61 c-182 85
-283 133 -323 151 -19 9 -71 23 -115 32 -44 9 -88 18 -97 20 -10 2 -18 2 -18
1 0 -2 -12 -55 -26 -117 -14 -63 -27 -118 -28 -124 -1 -5 -6 -25 -10 -44 -8
-32 -5 -37 74 -116 l81 -82 -46 -69 c-26 -38 -52 -74 -59 -80 -8 -9 -37 -3
-116 22 -103 34 -107 35 -225 29 -66 -4 -141 -7 -167 -8 -26 -1 -49 -6 -52
-12 -2 -7 -14 -79 -26 -161 -12 -82 -26 -153 -30 -157 -4 -5 -68 10 -141 33
-74 23 -152 47 -174 54 -37 12 -47 10 -108 -13 l-67 -26 0 -70 c0 -38 4 -86
10 -105 5 -19 12 -55 15 -80 4 -24 8 -48 11 -51 2 -4 6 -24 10 -45 3 -22 10
-56 15 -78 6 -21 9 -40 6 -42 -2 -2 -46 28 -97 66 -51 39 -98 70 -102 70 -9 0
-120 -100 -145 -130 -7 -8 -35 -71 -63 -140 l-50 -125 0 -157 0 -157 -32 -5
c-34 -6 -82 -10 -245 -21 l-91 -7 0 59 c0 32 0 63 -1 70 -1 12 -17 29 -99 107
l-41 39 -33 -25 c-18 -14 -42 -34 -53 -45 -11 -10 -46 -40 -77 -67 l-58 -48 0
-129 c0 -115 4 -145 36 -273 l36 -143 -67 -96 -66 -96 -2 -101 -2 -101 -82
-62 c-45 -34 -92 -70 -106 -80 l-24 -17 1 -278 1 -277 -70 -25 c-84 -30 -83
-18 -24 -260 10 -41 21 -115 25 -165 4 -49 8 -101 10 -115 1 -14 2 -39 3 -56
l1 -31 88 -1 c155 0 139 8 140 -71 l1 -69 -77 -27 c-42 -15 -115 -41 -161 -57
l-83 -31 113 -113 112 -113 -30 -83 -30 -83 49 -50 c80 -82 81 -79 -30 -110
-53 -15 -101 -30 -105 -35 -7 -6 -77 -243 -77 -261 0 -3 41 -47 91 -97 49 -51
92 -102 94 -114 2 -13 6 -68 10 -123 3 -55 8 -107 11 -115 2 -8 26 -30 54 -49
27 -19 50 -39 50 -45 0 -12 -66 -175 -74 -183 -2 -3 13 -39 34 -81 20 -42 55
-115 78 -162 44 -93 43 -77 12 -243 -7 -37 -11 -69 -9 -70 2 -2 35 -18 74 -37
43 -21 96 -59 139 -101 l70 -66 -54 -59 c-30 -32 -64 -68 -75 -80 -11 -12 -35
-37 -54 -57 l-34 -36 24 -38 c28 -44 60 -101 90 -159 25 -48 22 -46 219 -147
85 -43 159 -82 163 -86 4 -4 -20 -79 -53 -166 -33 -87 -59 -159 -58 -159 2 -1
32 -17 68 -36 156 -82 142 -68 182 -166 20 -49 37 -95 37 -101 1 -10 -26 -13
-104 -13 l-105 0 -1 -67 c0 -38 -1 -108 -2 -156 l-2 -88 165 -65 c91 -36 167
-67 169 -69 2 -3 3 -74 3 -160 l-1 -155 62 -1 c34 0 80 -1 102 -2 l40 -2 1
-143 1 -144 89 -83 c83 -77 96 -85 203 -126 62 -24 115 -48 117 -54 1 -5 5
-54 8 -107 2 -54 7 -102 10 -106 3 -5 32 -13 63 -17 32 -3 69 -9 83 -11 46 -8
84 -13 135 -20 44 -6 60 -16 124 -74 l74 -67 76 28 c57 22 77 26 83 16 7 -11
41 -67 139 -224 20 -32 105 -170 189 -308 84 -137 163 -266 175 -285 93 -147
105 -170 120 -240 1 -3 5 -31 9 -64 4 -32 9 -68 11 -80 3 -11 13 -82 25 -156
11 -74 24 -162 30 -195 5 -33 12 -76 15 -95 21 -146 37 -248 41 -263 13 -42
228 -376 267 -412 23 -22 110 -98 192 -169 83 -71 161 -145 175 -165 13 -20
28 -40 32 -46 5 -5 41 -57 81 -114 l72 -104 285 -178 c157 -98 339 -206 405
-240 66 -34 201 -104 301 -155 l180 -93 95 -5 c51 -3 146 -8 209 -12 63 -3
127 -7 142 -8 15 -1 123 -59 240 -128 204 -120 243 -137 367 -163 9 -2 86 -20
171 -40 85 -21 169 -41 185 -44 17 -4 181 -6 365 -6 l335 2 150 37 c385 96
318 88 717 88 l356 0 30 26 c17 15 43 38 59 52 126 113 171 157 188 186 11 19
56 92 99 163 l79 128 66 26 c36 13 125 46 196 73 149 54 145 51 333 276 11 13
36 96 57 188 16 71 67 259 75 277 5 12 63 103 129 202 65 99 117 181 115 183
-3 4 -18 75 -41 198 -2 14 -12 67 -22 119 -17 88 -19 141 -6 201 3 14 7 36 9
50 3 14 21 123 41 242 l37 218 -30 97 c-107 346 -165 531 -172 548 -11 25 -71
223 -70 230 0 3 -24 38 -54 77 -43 56 -54 78 -51 102 5 52 16 140 20 166 2 14
7 44 10 68 3 23 7 61 10 85 3 23 8 53 10 67 2 14 7 50 10 80 4 30 8 66 10 80
10 72 15 109 20 148 3 23 7 61 10 85 5 40 12 91 20 147 2 14 9 63 15 110 17
131 21 163 25 190 2 14 6 50 10 80 3 30 8 66 10 80 2 14 7 44 10 68 3 23 7 60
10 82 9 73 16 125 20 150 3 14 6 45 9 70 3 25 14 114 26 198 14 109 18 163 11
185 -31 108 -149 492 -241 787 -56 181 -55 167 -20 256 96 239 159 478 186
704 3 30 8 69 10 85 5 37 4 309 0 350 -12 98 -20 141 -42 235 -36 148 -91 276
-164 385 -17 26 -48 114 -85 245 -77 272 -185 600 -246 745 -6 17 -13 35 -15
40 -5 22 -117 280 -182 419 l-36 78 34 66 c19 37 51 96 71 132 20 36 62 115
94 175 31 61 61 114 66 120 19 20 5 35 -113 126 -67 52 -172 132 -233 179 -61
47 -125 96 -143 110 l-31 25 32 35 c18 19 64 71 102 115 39 44 77 87 85 95 32
35 149 167 175 198 l28 33 -35 37 c-19 20 -54 62 -79 92 -102 128 -115 136
-263 166 -32 6 -37 19 -27 65 5 24 13 60 16 79 3 19 15 80 26 135 10 55 19
103 19 107 0 4 -37 43 -82 87 l-82 81 -159 0 -159 0 7 63 c4 34 8 73 10 87 2
14 7 54 10 90 12 140 7 132 131 254 103 102 129 138 106 148 -4 2 -32 36 -62
76 l-55 73 -45 -5 c-25 -4 -54 -8 -65 -10 -11 -2 -42 -7 -70 -10 -27 -4 -88
-13 -135 -21 -143 -24 -154 -24 -246 2 -143 41 -170 45 -275 47 l-82 1 -46
101 -45 101 -142 42 c-147 42 -152 43 -219 11 -65 -30 -337 -141 -340 -138
-16 18 -126 242 -159 324 -50 123 -28 108 -267 189 l-166 56 -104 -51 c-108
-52 -116 -55 -212 -65 l-59 -5 -75 60 c-78 62 -86 64 -162 49z"/>
</g>
</svg>
